<?xml version="1.0" encoding="iso-8859-1"?>
<!-- Uploaded to: SVG Repo, www.svgrepo.com, Generator: SVG Repo Mixer Tools -->
<svg version="1.1" id="Layer_1" xmlns="http://www.w3.org/2000/svg" xmlns:xlink="http://www.w3.org/1999/xlink" 
	 viewBox="0 0 511.992 511.992" xml:space="preserve">
<g>
	<rect x="11.625" y="78.026" style="fill:#F5F7FA;" width="123.23" height="252.62"/>
	<rect x="375.696" y="78.026" style="fill:#F5F7FA;" width="123.25" height="252.62"/>
</g>
<rect x="134.856" y="74.656" style="fill:#FFD2A6;" width="238.47" height="357.84"/>
<path style="fill:#EC87C0;" d="M42.655,341.323c-5.891,0-10.656-4.781-10.656-10.672v-53.327c0-5.891,4.766-10.672,10.656-10.672
	s10.672,4.781,10.672,10.672v53.327C53.327,336.542,48.546,341.323,42.655,341.323z"/>
<path style="fill:#5D9CEC;" d="M74.655,341.323c-5.891,0-10.656-4.781-10.656-10.672v-53.327c0-5.891,4.766-10.672,10.656-10.672
	s10.672,4.781,10.672,10.672v53.327C85.327,336.542,80.546,341.323,74.655,341.323z"/>
<path style="fill:#FFD2A6;" d="M138.654,437.321H10.656C4.765,437.321,0,411.056,0,378.65s4.766-58.655,10.656-58.655h127.998
	c5.89,0,10.671,26.249,10.671,58.655S144.544,437.321,138.654,437.321z"/>
<g>
	<path style="fill:#F4BE8E;" d="M383.994,447.993H127.998V63.999h255.996V447.993z M149.325,426.649H362.65V85.327H149.325V426.649z
		"/>
	<rect x="245.326" y="74.656" style="fill:#F4BE8E;" width="21.328" height="362.67"/>
</g>
<g>
	<path style="fill:#434A54;" d="M213.324,287.996c-5.891,0-10.672-4.781-10.672-10.672v-32c0-5.891,4.781-10.672,10.672-10.672
		s10.672,4.782,10.672,10.672v32C223.996,283.215,219.215,287.996,213.324,287.996z"/>
	<path style="fill:#434A54;" d="M298.651,287.996c-5.891,0-10.656-4.781-10.656-10.672v-32c0-5.891,4.766-10.672,10.656-10.672
		s10.672,4.781,10.672,10.672v32C309.323,283.215,304.542,287.996,298.651,287.996z"/>
	<path style="fill:#434A54;" d="M85.327,383.994H63.999c-5.891,0-10.672-4.781-10.672-10.672s4.781-10.672,10.672-10.672h21.328
		c5.89,0,10.671,4.781,10.671,10.672S91.217,383.994,85.327,383.994z"/>
</g>
<path style="fill:#FFD2A6;" d="M501.32,437.321H373.322c-5.891,0-10.672-26.265-10.672-58.671s4.781-58.655,10.672-58.655H501.32
	c5.891,0,10.656,26.249,10.656,58.655S507.211,437.321,501.32,437.321z"/>
<path style="fill:#434A54;" d="M447.976,383.994h-21.327c-5.891,0-10.672-4.781-10.672-10.672s4.781-10.672,10.672-10.672h21.327
	c5.891,0,10.672,4.781,10.672,10.672S453.867,383.994,447.976,383.994z"/>
<rect x="42.655" y="202.656" style="fill:#A0D468;" width="63.999" height="42.671"/>
<rect x="405.316" y="287.996" style="fill:#48CFAD;" width="63.999" height="42.655"/>
<path style="fill:#ED5564;" d="M106.654,133.326c0,14.719-14.328,26.672-31.999,26.672c-17.672,0-32-11.953-32-26.672
	c0-14.734,14.328-26.671,32-26.671C92.326,106.655,106.654,118.592,106.654,133.326z"/>
<path style="fill:#AC92EB;" d="M469.32,218.653c0,14.733-14.328,26.671-32,26.671c-17.671,0-31.999-11.938-31.999-26.671
	c0-14.719,14.328-26.656,31.999-26.656C454.992,191.997,469.32,203.934,469.32,218.653z"/>
<path style="fill:#4FC2E9;" d="M437.32,170.654c-5.891,0-10.671-4.766-10.671-10.656v-53.343c0-5.891,4.78-10.656,10.671-10.656
	s10.672,4.766,10.672,10.656v53.343C447.992,165.889,443.211,170.654,437.32,170.654z"/>
<path style="fill:#ED5564;" d="M469.32,170.654c-5.891,0-10.672-4.766-10.672-10.656v-53.343c0-5.891,4.781-10.656,10.672-10.656
	s10.672,4.766,10.672,10.656v53.343C479.992,165.889,475.211,170.654,469.32,170.654z"/>
<g>
	<path style="fill:#F4BE8E;" d="M149.325,447.993H0V63.999h149.325V447.993z M21.328,426.649h106.67V85.327H21.328V426.649z"/>
	<path style="fill:#F4BE8E;" d="M511.976,447.993H362.65V63.999h149.326V447.993z M383.994,426.649h106.654V85.327H383.994V426.649z
		"/>
	<path style="fill:#F4BE8E;" d="M138.654,255.996H10.656C4.765,255.996,0,251.215,0,245.324s4.766-10.672,10.656-10.672h127.998
		c5.89,0,10.671,4.781,10.671,10.672S144.544,255.996,138.654,255.996z"/>
	<path style="fill:#F4BE8E;" d="M138.654,341.323H10.656C4.765,341.323,0,336.542,0,330.651s4.766-10.656,10.656-10.656h127.998
		c5.89,0,10.671,4.766,10.671,10.656S144.544,341.323,138.654,341.323z"/>
	<path style="fill:#F4BE8E;" d="M501.32,341.323H373.322c-5.891,0-10.672-4.781-10.672-10.672s4.781-10.656,10.672-10.656H501.32
		c5.891,0,10.672,4.766,10.672,10.656S507.211,341.323,501.32,341.323z"/>
	<path style="fill:#F4BE8E;" d="M138.654,170.654H10.656C4.765,170.654,0,165.888,0,159.998c0-5.906,4.766-10.672,10.656-10.672
		h127.998c5.89,0,10.671,4.766,10.671,10.672C149.325,165.889,144.544,170.654,138.654,170.654z"/>
	<path style="fill:#F4BE8E;" d="M501.32,255.996H373.322c-5.891,0-10.672-4.781-10.672-10.672s4.781-10.672,10.672-10.672H501.32
		c5.891,0,10.656,4.781,10.656,10.672S507.211,255.996,501.32,255.996z"/>
	<path style="fill:#F4BE8E;" d="M501.32,170.654H373.322c-5.891,0-10.672-4.766-10.672-10.656c0-5.906,4.781-10.672,10.672-10.672
		H501.32c5.891,0,10.656,4.766,10.656,10.672C511.976,165.889,507.211,170.654,501.32,170.654z"/>
</g>
</svg>